<?xml version="1.0" encoding="UTF-8"?>
<svg width="820px" height="380px" viewBox="0 0 820 380" xmlns="http://www.w3.org/2000/svg" xmlns:xlink="http://www.w3.org/1999/xlink" version="1.1">
 <!-- Generated by Pixelmator Pro 2.0.5 -->
 <path id="Path" d="M716.34 85.67 L714.03 69.12 712.88 60.85 712.3 56.71 712.23 56.19 712.2 55.94 712.17 55.74 712.13 55.54 712.07 55.26 711.81 54.12 711.27 51.84 710.93 50.39 709.85 49.36 707.91 47.52 707.58 47.21 C707.33 46.97 707.07 46.73 706.81 46.49 L706.79 46.47 706.77 46.45 705.76 45.57 701.68 42.07 701.59 41.99 701.5 41.92 700.4 41.06 C697.93 39.13 695.37 37.13 692.64 35.3 686.21 30.86 679.75 27.1 673.42 24.11 666.65 20.88 659.68 18.18 652.72 16.09 645.6 14 638.3 12.45 630.99 11.45 625.14 10.63 618.88 10.21 612.4 10.21 611.22 10.21 610.02 10.22 608.82 10.25 600.99 10.45 593.55 11.21 586.69 12.51 579.45 13.85 572.23 15.76 565.26 18.17 558.36 20.61 551.53 23.65 544.92 27.2 538.76 30.47 532.65 34.44 526.26 39.31 L524.11 40.98 523.04 41.81 522.96 41.88 522.88 41.95 521.86 42.82 517.78 46.33 517.72 46.38 517.66 46.43 C516.68 47.33 515.72 48.24 514.79 49.13 L513.7 50.16 512.72 51.1 512.23 51.57 512.2 51.6 512.17 51.63 511.77 52.03 510.15 53.65 484.28 79.52 432.54 131.26 421.99 141.81 436.76 139.75 463.3 136.05 459.6 162.59 457.54 177.36 468.09 166.81 519.83 115.07 545.7 89.2 547.32 87.58 547.68 87.22 547.98 86.94 548.66 86.29 C549.06 85.92 549.46 85.53 549.86 85.15 550.34 84.69 550.82 84.23 551.31 83.78 L554.11 81.38 554.73 80.85 555.37 80.36 556.88 79.2 C561.09 76 565 73.45 568.81 71.45 L568.85 71.43 568.89 71.41 C581.93 64.26 596.94 60.48 612.29 60.48 616.33 60.48 620.39 60.75 624.37 61.28 629.09 61.93 633.82 62.93 638.41 64.27 642.81 65.6 647.31 67.34 651.73 69.44 655.75 71.32 659.78 73.67 664.07 76.63 L665.59 77.68 C665.7 77.76 665.82 77.84 665.94 77.92 L666.13 78.05 666.91 78.66 669.81 80.91 672.58 83.3 673.28 83.9 673.52 84.13 C673.62 84.23 673.72 84.33 673.82 84.42 L675.16 85.7 676.55 87.03 678.47 87.08 680.36 87.13 681.23 87.16 681.26 87.16 681.78 87.23 685.91 87.81 694.19 88.96 710.73 91.27 717.29 92.18 Z" fill="#27aae1" fill-opacity="1" stroke="none"/>
 <path id="Path-1" d="M808.4 187.16 L808.36 185.73 808.36 185.7 808.36 185.67 C808.35 185.29 808.32 184.92 808.29 184.54 L808.26 184.11 808.05 181.2 C808 180.43 807.91 179.71 807.82 179.01 807.78 178.72 807.75 178.44 807.72 178.15 L807.54 176.67 807.52 176.51 C807.47 176.05 807.4 175.54 807.3 174.99 L806.83 172.18 806.75 171.69 C806.69 171.33 806.63 170.96 806.55 170.6 L806.54 170.57 806.53 170.54 806.23 169.13 805.6 166.29 805.59 166.23 805.58 166.17 C805.41 165.48 805.22 164.79 805.04 164.1 L804.83 163.32 C804.38 161.56 803.84 159.89 803.31 158.28 L803.08 157.57 C802.81 156.7 802.51 155.9 802.22 155.12 L802.03 154.61 800.99 151.88 800.95 151.78 800.91 151.68 799.76 149.03 799.58 148.62 C799.23 147.83 798.88 147 798.44 146.15 L798.07 145.4 C797.33 143.89 796.57 142.34 795.67 140.79 L794.27 138.3 794.22 138.2 794.16 138.11 792.66 135.69 C791.79 134.24 790.85 132.91 789.95 131.62 789.73 131.31 789.51 131 789.3 130.69 788.78 129.92 788.26 129.24 787.75 128.59 L787.42 128.17 785.63 125.87 785.58 125.81 785.53 125.75 C785.07 125.2 784.6 124.65 784.13 124.1 L783.61 123.5 782.65 122.39 C782.37 122.06 781.97 121.6 781.51 121.12 L779.55 119.06 778.54 118.01 778.5 117.97 778.46 117.93 777.64 117.11 774.4 113.87 767.93 107.4 755 94.47 729.13 68.6 718.58 58.05 720.64 72.82 724.34 99.36 697.8 95.66 683.03 93.6 693.58 104.15 719.45 130.02 732.38 142.95 738.85 149.42 742.08 152.65 742.82 153.39 743.35 153.96 744.55 155.22 744.6 155.27 744.65 155.32 C744.68 155.35 744.74 155.42 744.87 155.57 L744.9 155.6 744.93 155.63 745.48 156.28 746.51 157.48 747.46 158.71 C747.56 158.84 747.66 158.96 747.76 159.09 747.95 159.34 748.14 159.57 748.24 159.73 L748.27 159.77 748.3 159.81 C748.52 160.13 748.74 160.45 748.97 160.77 749.36 161.32 749.73 161.85 750 162.32 L750.04 162.4 750.09 162.48 750.92 163.79 751.67 165.14 751.71 165.21 751.75 165.28 C752.06 165.79 752.36 166.4 752.67 167.05 752.82 167.36 752.97 167.66 753.12 167.97 L753.15 168.02 753.18 168.07 C753.28 168.25 753.4 168.54 753.53 168.84 L753.7 169.24 754.33 170.67 754.87 172.12 C754.93 172.27 754.99 172.43 755.05 172.58 755.16 172.87 755.27 173.15 755.32 173.33 L755.34 173.39 755.36 173.45 C755.46 173.77 755.56 174.08 755.66 174.4 755.89 175.1 756.1 175.76 756.24 176.36 L756.25 176.42 756.27 176.48 C756.33 176.72 756.4 176.96 756.47 177.2 756.54 177.46 756.61 177.72 756.68 177.97 L757.02 179.54 757.2 180.35 757.24 180.6 C757.26 180.74 757.28 180.88 757.31 181.01 L757.59 182.64 757.6 182.72 757.62 182.8 757.65 183.05 757.67 183.21 757.77 184.03 C757.8 184.28 757.83 184.52 757.86 184.77 757.9 185.04 757.93 185.29 757.94 185.45 L757.94 185.48 757.94 185.51 758.06 187.2 C758.07 187.31 758.08 187.44 758.09 187.57 L758.11 187.83 758.13 188.64 C758.25 193.05 757.89 197.18 757.08 200.96 L756.72 202.61 756.7 202.69 756.69 202.77 C756.67 202.86 756.64 202.95 756.61 203.05 L756.58 203.15 756.36 203.96 C756.29 204.2 756.23 204.44 756.17 204.68 756.1 204.94 756.04 205.19 755.98 205.37 L755.45 207 755.23 207.69 754.98 208.35 754.39 209.92 C754.3 210.16 754.19 210.39 754.09 210.62 753.99 210.85 753.88 211.09 753.78 211.32 L753.46 212.06 753.35 212.33 753.23 212.57 753.21 212.61 753.19 212.65 C751.42 216.37 749.21 219.88 746.64 223.09 L746.56 223.2 746.48 223.31 746.36 223.45 746.23 223.6 745.67 224.24 C745.52 224.41 745.36 224.6 745.19 224.8 745.02 225 744.86 225.19 744.69 225.38 L743.56 226.56 742.95 227.21 742.84 227.33 742.71 227.46 742.31 227.86 735.85 234.32 722.92 247.25 697.05 273.12 684.12 286.05 677.65 292.52 676.84 293.33 676.69 293.47 676.57 293.59 676.23 293.91 674.84 295.22 673.46 296.54 673.31 296.68 673.24 296.74 672.96 296.98 672.23 297.6 670.73 298.88 670.51 300.84 C669.42 310.55 666.67 320.22 662.34 329.59 L659.57 335.6 666.11 336.63 C671.97 337.55 678.06 338.02 684.19 338.02 690.31 338.02 696.56 337.56 702.75 336.64 L704.19 336.43 705.29 335.48 706.3 334.6 706.81 334.16 706.85 334.13 706.89 334.1 C707.03 333.98 707.16 333.85 707.29 333.72 L707.44 333.58 709.41 331.71 711.36 329.86 711.85 329.39 712.09 329.16 712.12 329.13 712.15 329.1 712.36 328.89 713.19 328.06 719.66 321.59 732.59 308.66 758.46 282.79 771.4 269.86 777.87 263.39 778.27 262.99 778.5 262.76 778.52 262.74 778.54 262.72 778.79 262.46 779.79 261.41 781.78 259.31 781.81 259.27 781.84 259.23 C782.32 258.71 782.78 258.17 783.24 257.63 L783.81 256.97 784.77 255.85 784.95 255.64 C785.22 255.32 785.52 254.97 785.83 254.56 790.87 248.28 795.18 241.4 798.64 234.12 L798.94 233.51 798.98 233.42 799.02 233.33 799.31 232.67 799.89 231.33 C800.02 231.03 800.13 230.77 800.25 230.51 800.53 229.87 800.81 229.21 801.09 228.52 L801.1 228.49 801.11 228.46 802.13 225.76 802.64 224.39 802.68 224.3 802.71 224.21 803.16 222.84 804.05 220.06 C804.29 219.31 804.48 218.61 804.66 217.94 804.74 217.66 804.81 217.38 804.89 217.1 L805.28 215.66 805.31 215.56 C805.43 215.1 805.57 214.58 805.69 214.01 L806.3 211.23 C807.94 203.59 808.64 195.49 808.4 187.16 Z" fill="#4692d9" fill-opacity="1" stroke="none"/>
 <path id="Path-2" d="M676.66 344.51 C675.99 344.47 675.26 344.39 674.62 344.32 L672.33 344.06 671.93 344.01 C670.59 343.84 669.31 343.69 668.06 343.49 666.63 343.24 665.18 342.98 663.76 342.7 L661.61 342.27 C661.21 342.19 660.79 342.09 660.34 341.98 660.11 341.92 659.88 341.87 659.65 341.81 657.02 341.16 654.3 340.48 651.69 339.59 L651.66 339.58 651.63 339.57 C651.12 339.4 650.6 339.24 650.08 339.06 650.42 338.57 650.76 338.06 651.09 337.56 652.77 335.12 654.26 332.5 655.46 330.39 L655.48 330.36 655.5 330.33 C655.59 330.17 655.68 330.01 655.77 329.85 656.01 329.43 656.27 328.96 656.54 328.42 L657.41 326.68 C658.01 325.47 658.58 324.27 659.14 323.09 L659.16 323.05 659.18 323.01 C659.7 321.84 660.18 320.68 660.63 319.55 L660.72 319.32 661.43 317.54 C661.67 316.94 661.93 316.25 662.18 315.5 L666.07 303.62 655.06 309.53 C642.09 316.5 627.23 320.18 612.09 320.18 607.88 320.18 603.64 319.89 599.5 319.31 594.82 318.63 590.11 317.59 585.54 316.22 L582.11 315.12 578.69 313.83 577.91 313.54 577.17 313.22 575.44 312.47 573.81 311.77 572.24 310.99 570.53 310.15 569.8 309.79 569.1 309.4 565.89 307.61 562.8 305.67 562.06 305.21 C561.95 305.14 561.85 305.06 561.74 304.98 L561.43 304.76 559.89 303.69 C555.62 300.68 552.02 297.7 548.89 294.6 L548.85 294.56 548.81 294.52 548.12 293.87 547.77 293.54 547.65 293.43 547.49 293.27 545.88 291.66 542.65 288.43 536.18 281.96 523.25 269.03 497.38 243.16 445.64 191.42 444.45 190.23 442.79 190 409.7 185.39 403.14 184.48 404.05 191.04 408.66 224.13 408.89 225.79 410.07 226.98 461.81 278.72 487.68 304.59 500.61 317.52 507.08 323.99 510.31 327.22 511.92 328.84 512.14 329.05 512.16 329.07 512.18 329.09 512.41 329.32 512.91 329.8 513.85 330.7 C518.82 335.58 524.57 340.34 530.95 344.84 L533.18 346.39 533.54 346.64 C533.81 346.83 534.09 347.02 534.36 347.2 L534.41 347.24 534.47 347.28 535.61 347.99 540.18 350.84 540.28 350.9 540.38 350.96 545.07 353.58 546.26 354.24 546.35 354.29 546.45 354.34 547.65 354.94 550.07 356.14 552.49 357.33 552.59 357.38 552.69 357.43 555.15 358.5 557.63 359.57 558.88 360.11 558.97 360.15 559.06 360.19 560.31 360.67 561.19 361 C562.59 361.53 564 362.06 565.4 362.58 L565.49 362.61 565.58 362.64 570.69 364.29 570.74 364.3 570.79 364.31 C577.86 366.44 585.15 368.05 592.45 369.1 L592.51 369.11 592.57 369.12 597.86 369.75 C598.45 369.83 599.01 369.87 599.49 369.9 L600.79 370 603.43 370.19 C604.95 370.32 606.41 370.36 607.83 370.39 608.23 370.4 608.63 370.41 609.04 370.42 L611.75 370.48 611.79 370.48 611.83 370.48 612 370.48 C612.59 370.48 613.18 370.47 613.77 370.45 614.05 370.44 614.34 370.44 614.62 370.43 L617.33 370.36 618.68 370.32 618.73 370.32 618.78 370.32 C619.12 370.3 619.45 370.28 619.79 370.26 L620.21 370.23 625.59 369.84 625.71 369.83 625.82 369.82 631.14 369.19 631.17 369.19 631.2 369.19 631.6 369.14 C631.96 369.1 632.32 369.05 632.68 369 L634.03 368.78 636.68 368.33 C637 368.27 637.28 368.23 637.55 368.18 638.17 368.08 638.82 367.97 639.49 367.83 L639.52 367.82 639.55 367.81 642.17 367.24 C642.56 367.15 642.93 367.07 643.29 366.99 644.71 366.68 646.17 366.36 647.67 365.94 L650.22 365.25 651.53 364.9 C651.96 364.79 652.5 364.64 653.07 364.45 L658.15 362.81 658.21 362.79 658.27 362.77 C665.23 360.34 672.09 357.36 678.63 353.9 L694.48 345.53 Z" fill="#657ad0" fill-opacity="1" stroke="none"/>
 <path id="Path-3" d="M437.33 183.13 L426.78 172.58 323.3 69.11 310.37 56.17 307.14 52.94 306.33 52.13 305.92 51.72 305.9 51.7 305.88 51.68 305.66 51.46 305.39 51.2 303.45 49.35 301.5 47.5 301.17 47.19 C300.91 46.94 300.64 46.69 300.36 46.45 L299.33 45.56 295.25 42.06 295.19 42.01 295.13 41.96 C289.35 37.3 283.21 33.06 276.88 29.34 L276.83 29.31 276.78 29.28 272.09 26.67 272.04 26.64 271.99 26.61 C270.82 25.99 269.64 25.42 268.5 24.86 268.04 24.63 267.58 24.41 267.12 24.18 265.76 23.48 264.42 22.9 263.12 22.34 262.74 22.18 262.37 22.01 261.99 21.85 L259.49 20.77 C258.81 20.48 258.2 20.26 257.61 20.03 257.34 19.93 257.07 19.83 256.81 19.73 L254.25 18.77 254.04 18.69 C253.23 18.38 252.38 18.06 251.46 17.78 L246.38 16.14 246.3 16.11 246.22 16.09 C244.9 15.72 243.58 15.36 242.26 15.01 L240.98 14.66 239.67 14.31 239.61 14.29 239.55 14.28 C239.22 14.2 238.9 14.13 238.57 14.06 L238.17 13.97 235.53 13.39 232.89 12.82 232.78 12.8 232.67 12.78 230.03 12.33 227.37 11.88 226.92 11.81 C226.57 11.75 226.22 11.69 225.87 11.65 L224.5 11.48 222.99 11.3 C221.71 11.15 220.4 10.98 219.07 10.85 L219 10.84 218.93 10.83 213.58 10.45 213.53 10.45 213.48 10.45 C211 10.32 208.48 10.26 205.99 10.26 201.11 10.26 196.17 10.51 191.32 10.99 L191.27 10.99 191.22 11 185.9 11.64 185.82 11.65 185.74 11.66 C184.39 11.87 183.04 12.1 181.69 12.33 L180.38 12.55 179.04 12.78 178.98 12.79 178.92 12.8 C178.59 12.86 178.26 12.94 177.94 13.01 L177.54 13.1 174.9 13.68 172.26 14.26 172.15 14.28 172.05 14.31 169.46 15 168.04 15.38 167.05 16.47 C165.91 17.73 164.88 18.88 163.92 19.99 L163.88 20.04 163.84 20.09 C162.84 21.31 161.86 22.53 160.93 23.71 158.89 26.23 157.07 28.89 155.46 31.24 L155.44 31.27 155.42 31.3 C155.3 31.47 155.19 31.64 155.07 31.81 154.77 32.25 154.43 32.75 154.09 33.31 L152.96 35.14 C152.2 36.39 151.44 37.67 150.69 38.95 L150.67 38.99 150.65 39.03 C149.98 40.24 149.35 41.44 148.75 42.6 L148.57 42.95 147.6 44.86 C147.28 45.49 146.92 46.21 146.57 47.02 L143.93 53.09 150.5 53.97 C151.06 54.04 151.68 54.16 152.26 54.27 L154.29 54.67 154.6 54.73 C155.79 54.97 156.92 55.2 158.03 55.47 159.27 55.79 160.54 56.13 161.8 56.48 L163.68 57.02 163.71 57.03 163.74 57.04 C164.02 57.12 164.38 57.24 164.76 57.37 164.97 57.44 165.17 57.51 165.37 57.57 167.64 58.35 170 59.15 172.23 60.13 L172.26 60.14 172.29 60.15 C173.4 60.62 174.51 61.11 175.59 61.59 176.61 62.09 177.66 62.62 178.79 63.2 L180.52 64.1 182.4 63.59 184.09 63.13 185.81 62.76 187.67 62.35 188.04 62.27 C188.17 62.24 188.3 62.21 188.42 62.19 L189.26 62.05 192.89 61.44 196.48 61.01 C199.63 60.7 202.83 60.55 206 60.55 207.58 60.55 209.19 60.59 210.76 60.67 L214.4 60.93 C215.06 61 215.72 61.08 216.38 61.16 216.93 61.23 217.49 61.3 218.04 61.36 L218.93 61.46 219.26 61.52 C219.4 61.54 219.54 61.57 219.68 61.59 L221.51 61.9 223.26 62.19 224.98 62.57 226.85 62.98 227.22 63.06 C227.35 63.09 227.48 63.11 227.61 63.14 L228.43 63.37 231.97 64.33 235.45 65.46 235.52 65.48 235.59 65.5 C235.93 65.6 236.34 65.76 236.77 65.92 L236.98 66 238.77 66.68 C238.97 66.76 239.22 66.85 239.46 66.94 239.75 67.05 240.04 67.15 240.33 67.27 L242.03 68.01 C242.35 68.15 242.7 68.3 243.06 68.45 243.81 68.77 244.52 69.07 245.13 69.4 L245.17 69.42 245.22 69.44 C245.7 69.68 246.18 69.92 246.66 70.15 247.27 70.45 247.87 70.74 248.47 71.06 L251.65 72.84 C255.69 75.22 259.63 77.95 263.36 80.93 L266.16 83.34 266.9 83.97 267.1 84.16 C267.2 84.26 267.3 84.35 267.4 84.45 L268.75 85.74 270.14 87.06 270.3 87.21 270.43 87.34 270.81 87.72 271.62 88.53 274.85 91.76 287.78 104.69 391.26 208.17 401.81 218.72 399.75 203.95 396.05 177.41 422.59 181.11 Z" fill="#8363c8" fill-opacity="1" stroke="none"/>
 <path id="Path-4" d="M161.83 61.92 C153.88 59.89 145.48 58.86 136.86 58.86 136.46 58.86 136.06 58.86 135.66 58.87 138.01 50.27 141.48 41.81 146.02 33.66 L154.58 18.29 139.22 26.86 134.55 29.46 C134.04 29.74 133.58 30.02 133.15 30.29 L132.03 30.99 129.74 32.42 128.59 33.14 128.01 33.51 127.92 33.57 127.84 33.63 127.29 34.01 125.08 35.55 124.4 36.03 C123.12 36.92 121.79 37.84 120.49 38.89 120.08 39.21 119.68 39.52 119.27 39.83 118.27 40.6 117.23 41.4 116.21 42.24 L116.16 42.28 116.11 42.32 112.04 45.81 111.7 46.1 C111.42 46.34 111.15 46.57 110.89 46.82 L109.88 47.77 107.93 49.62 105.98 51.48 105.94 51.52 105.9 51.56 104.27 53.19 78.4 79.06 52.53 104.93 39.59 117.86 C33.89 123.58 28.86 129.96 24.64 136.82 L23.89 138.03 23.87 138.06 23.85 138.09 C23.65 138.42 23.47 138.75 23.28 139.08 L23.07 139.46 21.64 142.02 21.28 142.68 21.23 142.76 21.19 142.85 20.87 143.5 20.22 144.8 C20.08 145.09 19.95 145.34 19.83 145.59 19.52 146.22 19.2 146.86 18.89 147.54 16.94 151.91 15.55 155.5 14.49 158.87 14.4 159.15 14.31 159.43 14.22 159.7 14 160.36 13.78 161.05 13.58 161.79 L12.83 164.58 12.71 165.04 C12.62 165.39 12.52 165.74 12.44 166.08 L12.43 166.14 12.42 166.2 12.11 167.61 11.49 170.45 11.48 170.5 11.47 170.55 C11.33 171.26 11.21 171.98 11.09 172.7 L10.96 173.5 10.95 173.53 10.94 173.56 C10.9 173.83 10.85 174.09 10.81 174.36 10.69 175.04 10.56 175.82 10.47 176.63 10.43 177.01 10.38 177.38 10.33 177.76 10.14 179.31 9.94 180.92 9.85 182.59 9.23 190.8 9.57 198.91 10.85 206.68 L11.34 209.55 11.35 209.59 11.36 209.63 C11.49 210.33 11.64 211.02 11.79 211.71 11.85 211.99 11.92 212.28 11.98 212.56 L12.3 214.01 12.46 214.73 12.48 214.82 12.51 214.91 12.7 215.61 13.45 218.38 C13.69 219.31 13.97 220.18 14.24 221.01 L14.36 221.39 15.26 224.15 15.29 224.26 15.33 224.37 16.34 227.07 16.53 227.58 C16.82 228.35 17.12 229.15 17.5 229.99 20.63 237.43 24.62 244.49 29.37 251 L29.41 251.05 29.45 251.1 31.21 253.38 31.23 253.41 31.25 253.44 C31.42 253.65 31.58 253.86 31.74 254.07 32.17 254.62 32.65 255.25 33.2 255.87 L35.05 258.03 35.36 258.39 C35.61 258.68 35.86 258.97 36.11 259.25 L36.13 259.27 36.15 259.29 37.14 260.33 39.14 262.43 39.4 262.7 39.65 262.96 39.67 262.98 39.69 263 40.1 263.4 40.91 264.21 44.14 267.44 70.01 293.31 71.2 294.5 72.86 294.73 105.95 299.34 112.51 300.25 111.6 293.69 106.99 260.6 106.76 258.94 105.58 257.75 79.71 231.88 76.48 228.65 75.67 227.84 75.27 227.44 75.21 227.38 75.19 227.36 75.06 227.22 73.88 225.97 73.3 225.36 73.14 225.18 C73.05 225.08 72.97 224.97 72.88 224.87 L71.79 223.61 71.73 223.54 71.67 223.47 C71.59 223.38 71.43 223.17 71.29 222.99 71.15 222.8 71.01 222.61 70.86 222.43 L69.9 221.2 C67.51 217.9 65.48 214.31 63.89 210.53 L63.85 210.43 63.8 210.33 C63.71 210.15 63.61 209.86 63.5 209.56 L63.34 209.13 62.79 207.68 62.32 206.2 62.2 205.82 C62.09 205.49 61.99 205.18 61.93 204.95 L61.91 204.87 61.89 204.79 61.45 203.16 61.37 202.86 61.31 202.59 61.13 201.77 C61.09 201.55 61.03 201.3 60.97 201.05 60.91 200.8 60.86 200.55 60.81 200.3 L60.54 198.68 C59.89 194.79 59.72 190.65 60.04 186.36 L60.05 186.28 60.05 186.2 C60.07 185.64 60.15 185.01 60.24 184.33 60.29 183.94 60.34 183.54 60.38 183.15 L60.38 183.1 60.38 183.05 C60.39 182.92 60.44 182.68 60.48 182.44 60.52 182.22 60.56 182 60.59 181.78 60.63 181.55 60.67 181.31 60.71 181.08 60.75 180.82 60.79 180.57 60.84 180.32 L61.19 178.73 61.35 177.96 C61.38 177.86 61.4 177.76 61.43 177.67 L61.53 177.3 61.97 175.67 C62.02 175.46 62.1 175.22 62.19 174.97 62.27 174.72 62.35 174.48 62.43 174.23 63.02 172.31 63.85 170.35 64.65 168.51 64.76 168.28 64.87 168.05 64.99 167.82 65.11 167.59 65.22 167.36 65.33 167.13 L65.68 166.41 65.81 166.15 65.95 165.91 66.78 164.43 C66.83 164.33 66.9 164.22 66.96 164.1 L67.08 163.89 67.51 163.22 67.53 163.2 67.55 163.18 C69.72 159.66 72.3 156.39 75.21 153.46 L88.13 140.54 114 114.67 139.87 88.8 141.42 87.25 142.75 85.99 144.14 84.67 144.81 84.03 145.05 83.82 C145.16 83.73 145.27 83.63 145.38 83.54 L148.17 81.14 C148.7 80.71 149.23 80.3 149.77 79.89 150.2 79.56 150.62 79.24 151.04 78.9 L151.08 78.87 151.12 78.84 C151.73 78.34 152.44 77.85 153.19 77.33 153.42 77.17 153.65 77.01 153.88 76.85 L155.43 75.77 155.71 75.57 155.99 75.4 156.79 74.91 158.4 73.9 159.21 73.39 C159.38 73.28 159.58 73.15 159.67 73.11 L159.73 73.08 159.79 73.05 163.09 71.21 174.05 65.1 Z" fill="#a24bbf" fill-opacity="1" stroke="none"/>
 <path id="Path-5" d="M367.03 226.69 L333.94 231.3 332.28 231.53 331.09 232.72 279.35 284.46 272.88 290.93 271.26 292.55 270.45 293.36 270.31 293.5 270.18 293.62 269.84 293.94 267.13 296.52 C263.55 299.73 259.75 302.69 255.84 305.31 251.91 307.86 247.71 310.17 243.33 312.17 L240.03 313.6 236.61 314.89 C236.51 314.92 236.37 314.98 236.23 315.03 L235.96 315.13 235.06 315.42 233.25 316 C233.04 316.07 232.79 316.15 232.55 316.23 232.25 316.33 231.95 316.43 231.65 316.52 L229.86 317 C229.52 317.09 229.16 317.19 228.79 317.29 227.99 317.51 227.24 317.72 226.55 317.85 L226.48 317.86 226.41 317.88 224.56 318.28 223.62 318.49 C223.41 318.54 223.19 318.59 223.07 318.61 L223.01 318.62 222.95 318.63 219.22 319.26 218.88 319.32 218.54 319.36 217.59 319.47 215.73 319.69 C212.31 320.05 208.84 320.24 205.42 320.24 204.09 320.24 202.74 320.21 201.42 320.16 196.65 319.9 191.86 319.29 187.18 318.33 182.77 317.46 178.16 316.11 173.45 314.33 168.58 312.48 164.37 310.49 160.57 308.26 L160.46 308.2 160.35 308.14 C159.72 307.81 159.06 307.39 158.35 306.95 158.04 306.76 157.74 306.56 157.43 306.37 L155.85 305.38 155.79 305.34 155.73 305.3 C155.66 305.26 155.49 305.14 155.35 305.04 L155.34 305.03 155.3 305 154.53 304.46 152.97 303.37 152.18 302.82 151.91 302.63 151.65 302.43 148.64 300.1 148.58 300.05 148.52 300 C148.35 299.87 148.1 299.66 147.85 299.44 147.69 299.3 147.53 299.16 147.36 299.02 L145.96 297.81 C145.79 297.66 145.59 297.49 145.39 297.32 145.15 297.12 144.91 296.92 144.68 296.71 L143.35 295.44 141.96 294.12 141.31 293.51 140.56 292.76 137.33 289.53 124.4 276.6 113.86 266.05 115.92 280.82 118.23 297.37 119.38 305.64 119.62 307.36 117.9 307.12 109.63 305.97 93.08 303.66 78.31 301.6 88.86 312.15 101.79 325.08 105.02 328.31 105.84 329.12 105.88 329.16 105.92 329.2 106.89 330.12 108.84 331.97 110.79 333.82 110.82 333.85 110.86 333.88 C111.33 334.31 111.82 334.73 112.3 335.14 112.52 335.33 112.74 335.52 112.96 335.71 L115.02 337.48 C115.23 337.66 115.41 337.81 115.58 337.96 116.09 338.4 116.67 338.89 117.31 339.38 L121.52 342.64 122.06 343.06 122.14 343.12 122.23 343.18 122.78 343.57 123.89 344.35 126.1 345.89 127.21 346.66 C127.62 346.94 128.05 347.25 128.55 347.55 L130.79 348.96 C131.14 349.17 131.46 349.38 131.78 349.58 132.99 350.34 134.25 351.13 135.61 351.86 141.65 355.37 148.4 358.55 155.68 361.32 162.89 364.05 170.08 366.14 177.06 367.54 184.27 369.02 191.67 369.96 199.04 370.35 201.2 370.44 203.35 370.49 205.46 370.49 210.7 370.49 216.01 370.21 221.24 369.65 L221.27 369.65 221.3 369.65 223.96 369.33 225.3 369.17 225.97 369.09 226.07 369.08 226.17 369.06 226.83 368.95 232.11 368.06 C232.69 367.97 233.21 367.86 233.7 367.75 L234.99 367.47 237.58 366.9 C239.07 366.6 240.48 366.22 241.85 365.85 242.24 365.74 242.64 365.64 243.03 365.53 L245.65 364.82 245.68 364.81 245.71 364.8 C246.36 364.61 246.98 364.41 247.57 364.22 247.84 364.13 248.12 364.04 248.39 363.96 L250.98 363.12 252.27 362.7 C252.63 362.58 252.97 362.45 253.32 362.32 253.45 362.27 253.57 362.23 253.7 362.18 L253.73 362.17 253.76 362.16 258.78 360.26 258.87 360.23 258.96 360.19 C260.31 359.62 261.65 359.04 262.99 358.45 L263.94 358.04 263.98 358.02 264.02 358 C270.81 354.91 277.36 351.31 283.49 347.31 289.62 343.23 295.5 338.65 301.02 333.67 L301.07 333.63 301.12 333.59 305 329.9 305.5 329.43 305.75 329.19 305.78 329.16 305.81 329.13 306.02 328.92 306.84 328.1 308.46 326.48 314.93 320.01 366.67 268.27 367.86 267.09 368.09 265.43 372.7 232.34 373.61 225.78 Z" fill="#c133b7" fill-opacity="1" stroke="none"/>
</svg>
